
  <!-- Star Icon -->
  <svg xmlns="http://www.w3.org/2000/svg" fill="currentColor" class="w-6 h-6 text-yellow-500">
    <path d="M12 .587l3.668 7.568L24 9.753l-6 5.847 1.416 8.587L12 19.412 4.584 24.187 6 15.6 0 9.753l8.332-1.598L12 .587z"/>
  </svg>
  <svg xmlns="http://www.w3.org/2000/svg" fill="currentColor" class="w-6 h-6 text-yellow-500">
    <path d="M12 .587l3.668 7.568L24 9.753l-6 5.847 1.416 8.587L12 19.412 4.584 24.187 6 15.6 0 9.753l8.332-1.598L12 .587z"/>
  </svg>
  <svg xmlns="http://www.w3.org/2000/svg" fill="currentColor" class="w-6 h-6 text-yellow-500">
    <path d="M12 .587l3.668 7.568L24 9.753l-6 5.847 1.416 8.587L12 19.412 4.584 24.187 6 15.6 0 9.753l8.332-1.598L12 .587z"/>
  </svg>
  <svg xmlns="http://www.w3.org/2000/svg" fill="currentColor" class="w-6 h-6 text-yellow-500">
    <path d="M12 .587l3.668 7.568L24 9.753l-6 5.847 1.416 8.587L12 19.412 4.584 24.187 6 15.6 0 9.753l8.332-1.598L12 .587z"/>
  </svg>
  <svg xmlns="http://www.w3.org/2000/svg" fill="currentColor" class="w-6 h-6 text-yellow-500">
    <path d="M12 .587l3.668 7.568L24 9.753l-6 5.847 1.416 8.587L12 19.412 4.584 24.187 6 15.6 0 9.753l8.332-1.598L12 .587z"/>
  </svg>

